<svg width="88" height="88" viewBox="0 0 88 88" fill="none" xmlns="http://www.w3.org/2000/svg">
<rect width="88" height="88" rx="16.3217" fill="#2F313C"/>
<path d="M33.5914 33.2222L27.6855 30.0479L42.3763 5.02197H45.6983L60.4629 30.0479L54.4832 33.2222L44.0742 14.4713L33.5914 33.2222Z" fill="#E5E7EB"/>
<path d="M68.1395 61.4225C68.1395 65.901 67.2045 69.7398 65.3343 72.9389C63.464 76.1871 60.7819 78.6479 57.2876 80.3212C53.8426 82.0437 49.6838 82.905 44.8115 82.905C39.6931 82.905 35.2637 81.9699 31.5234 80.0997C27.8322 78.2295 24.9532 75.5473 22.8861 72.053C20.8682 68.5587 19.8594 64.4001 19.8594 59.5769V33.2222H23.4767C23.8705 34.2065 24.2396 35.24 24.584 36.3227C24.9285 37.4547 25.2484 38.7097 25.5437 40.0877L62.3075 40.8997L64.2269 33.2222H68.1395V61.4225ZM26.5773 63.4157C27.9061 66.1718 29.9731 68.2142 32.7784 69.543C35.6328 70.921 39.2994 71.6101 43.778 71.6101C47.3706 71.6101 50.3236 71.2656 52.6367 70.5765C54.9499 69.9368 56.7216 69.0263 57.952 67.8451C59.2316 66.7131 60.1175 65.4336 60.6096 64.0063C61.151 62.6283 61.4217 61.1764 61.4217 59.6508V46.7318L66.0725 51.3088H21.9264L26.5773 46.7318V63.4157Z" fill="#E5E7EB"/>
</svg>
